<svg width="43" height="36" fill="none" xmlns="http://www.w3.org/2000/svg">
    <path d="M.77 21.35l4.69-14.7a3.03 3.03 0 015.53-.56l1.17 2.1a4.17 4.17 0 003.64 2.12h5.77a4.17 4.17 0 014.15 3.8l1.54 17.36A4.17 4.17 0 0123.1 36h-2.5a20.1 20.1 0 01-14.15-5.83l-4.63-4.6a4.17 4.17 0 01-1.04-4.22z" fill="#0C0C0D"/><path d="M42.23 21.35l-4.69-14.7a3.03 3.03 0 00-5.53-.56l-1.17 2.1a4.17 4.17 0 01-3.64 2.12h-4.63a4.17 4.17 0 00-4.13 3.6l-2.43 17.34A4.17 4.17 0 0020.14 36h2.27c5.3 0 10.39-2.1 14.15-5.83l4.63-4.6a4.17 4.17 0 001.04-4.22z" fill="#0C0C0D"/>
    <path d="M18.37 23.11h6.26v3.13a3.13 3.13 0 01-6.26 0V23.1z" fill="#F19EB3"/>
</svg>
